Coordinates
version=1
nRows=29
nColumns=24
inDegrees=yes

Units are S.I. units (second, meters, Newtons, ...)
Angles are in degrees.

endheader
time	pelvis_tilt	pelvis_list	pelvis_rotation	pelvis_tx	pelvis_ty	pelvis_tz	hip_flexion_r	hip_adduction_r	hip_rotation_r	knee_angle_r	ankle_angle_r	subtalar_angle_r	mtp_angle_r	hip_flexion_l	hip_adduction_l	hip_rotation_l	knee_angle_l	ankle_angle_l	subtalar_angle_l	mtp_angle_l	lumbar_extension	lumbar_bending	lumbar_rotation
      3.90500000	    -18.63745030	     -3.38057248	      5.90474917	     -2.07031748	     -0.04783055	     -0.31676829	     47.18647605	     -0.81081482	    -17.87500176	    -12.73256275	     -1.80967059	     -1.38223518	     21.06408471	      0.44926898	     -2.11065141	     -2.13078532	    -14.94854317	     11.79379698	      8.85018786	      7.51333720	     18.90298404	      0.47694106	    -22.34160939
      3.91000000	    -18.69703694	     -3.60316496	      5.87222413	     -2.06234149	     -0.04923242	     -0.31613961	     47.40404462	     -0.60743485	    -17.81223208	    -13.53368446	     -2.59350692	     -2.42836020	     21.06535963	      0.27235520	     -2.49304663	     -2.04500299	    -15.49282433	     11.52313669	      9.04492804	      7.51437769	     19.13043167	      0.69329280	    -22.38650830
      3.91500000	    -18.71933969	     -3.84589532	      5.78649378	     -2.05431085	     -0.05055683	     -0.31542933	     47.59119782	     -0.33175763	    -17.65216999	    -14.38173852	     -3.54245493	     -3.73918206	     21.07357509	      0.06543457	     -2.91435321	     -2.08364338	    -16.06122940	     11.20993405	      9.33718072	      7.55999715	     19.31943691	      0.95539251	    -22.37259070
      3.92000000	    -18.73665237	     -4.10124448	      5.65236758	     -2.04623401	     -0.05182008	     -0.31465687	     47.79187329	     -0.00414597	    -17.42323797	    -15.29224603	     -4.60851077	     -5.21831956	     21.05338623	     -0.13974289	     -3.35560557	     -2.19481218	    -16.64666393	     10.82142313	      9.65245273	      7.64462686	     19.50661760	      1.25181070	    -22.32247927
      3.92500000	    -18.75122674	     -4.33207225	      5.44137733	     -2.03812546	     -0.05300383	     -0.31371581	     48.00802967	      0.38130689	    -17.04095314	    -16.25325344	     -5.75149410	     -6.86752716	     20.95996104	     -0.33484993	     -3.78965615	     -2.46726047	    -17.26938930	     10.31059988	     10.05621678	      7.81312343	     19.68191054	      1.53722384	    -22.23250310
      3.93000000	    -18.78989711	     -4.65431893	      5.27055487	     -2.03000951	     -0.05414345	     -0.31293407	     48.27253956	      0.79277358	    -16.73894939	    -17.29248323	     -6.87681386	     -8.51984019	     20.72161626	     -0.46975457	     -4.29549261	     -2.53032601	    -17.92797345	      9.78110156	     10.29096012	      7.97863913	     19.89381508	      1.92395561	    -22.16085840
      3.93500000	    -18.82413492	     -4.91014739	      4.99123647	     -2.02187188	     -0.05521123	     -0.31188874	     48.55856337	      1.27471020	    -16.13432571	    -18.39995748	     -7.93658908	    -10.31538088	     20.20469791	     -0.59181813	     -4.76864594	     -2.93269865	    -18.63919024	      9.09574820	     10.72270127	      8.30598006	     20.08242857	      2.26170053	    -22.02760997
      3.94000000	    -18.85695206	     -5.18477432	      4.63830154	     -2.01373992	     -0.05625637	     -0.31070939	     48.88970666	      1.84078136	    -15.45647926	    -19.63719775	     -8.82389452	    -11.94116633	     18.95730426	     -0.70208897	     -5.28313173	     -3.39991832	    -19.37391042	      8.35789988	     11.25206538	      9.04100170	     20.25793767	      2.64979719	    -21.73592680
      3.94500000	    -18.85102732	     -5.52931308	      4.42202279	     -2.00559956	     -0.05705330	     -0.30971210	     49.17232615	      2.37978167	    -14.85068745	    -20.95971851	     -9.44570723	    -13.26441217	     16.39835975	     -0.79228689	     -5.86066712	     -3.66485981	    -20.11033953	      7.32878921	     11.47150682	     10.24221244	     20.40611792	      3.06005602	    -21.73061773
      3.95000000	    -18.90016247	     -5.82345312	      4.12004796	     -1.99751560	     -0.05788517	     -0.30865781	     49.50488842	      2.95147184	    -14.08220840	    -22.21347566	     -9.97992732	    -14.71799497	     15.49396170	     -0.75774571	     -6.38903473	     -4.08238786	    -21.04352782	      6.35068415	     11.90073970	     10.61953553	     20.58847367	      3.45756110	    -21.59009867
      3.95500000	    -18.83007411	     -6.12808624	      3.88029656	     -1.98943672	     -0.05852688	     -0.30752445	     49.74539907	      3.52618579	    -13.40925602	    -23.65518854	    -10.04937542	    -15.69744240	     12.54840377	     -0.82800029	     -6.97012130	     -4.47695636	    -21.90468860	      5.11706287	     12.30151151	     12.15920877	     20.63401238	      3.83284735	    -21.52109865
      3.96000000	    -18.79634737	     -6.42684112	      3.62018061	     -1.98131666	     -0.05912095	     -0.30642202	     49.98806810	      4.11072742	    -12.77574190	    -25.02549275	     -9.99651510	    -16.63761389	     10.50619893	     -0.80741011	     -7.54466375	     -4.89823603	    -22.87103181	      3.78280491	     12.72135409	     13.34818497	     20.72650065	      4.21660027	    -21.43928408
      3.96500000	    -18.72534087	     -6.72985751	      3.39043407	     -1.97327756	     -0.05956419	     -0.30535596	     50.15246462	      4.68746453	    -12.19948453	    -26.34611901	     -9.76266695	    -17.34706161	      8.47214669	     -0.74462644	     -8.14126161	     -5.32943265	    -23.92158039	      2.27320135	     13.10547504	     14.78507132	     20.75885639	      4.59740560	    -21.38585596
      3.97000000	    -18.62886064	     -7.02777717	      3.20292842	     -1.96528451	     -0.05990295	     -0.30433709	     50.24437506	      5.23863193	    -11.69369192	    -27.60802449	     -9.34415561	    -17.91352349	      6.53544048	     -0.63893761	     -8.73909803	     -5.70197973	    -25.03279083	      0.61802627	     13.39796196	     16.39861119	     20.75637265	      4.95854396	    -21.39586192
      3.97500000	    -18.51303989	     -7.30845153	      3.05506303	     -1.95736506	     -0.06012845	     -0.30336357	     50.26280211	      5.74425606	    -11.30356506	    -28.78509404	     -8.80836906	    -18.36963129	      4.83102909	     -0.47571726	     -9.32435110	     -6.01757042	    -26.21290945	     -1.17912113	     13.60870542	     18.11348999	     20.72194828	      5.28934470	    -21.44217717
      3.98000000	    -18.44201653	     -7.62259991	      2.92154707	     -1.94944342	     -0.06031647	     -0.30241580	     50.24842349	      6.26079470	    -11.00778909	    -29.81531686	     -8.22061378	    -18.80568577	      3.58089430	     -0.18577660	     -9.95402864	     -6.31177486	    -27.48744030	     -3.04664382	     13.79342394	     19.70159341	     20.73820396	      5.64406219	    -21.54841053
      3.98500000	    -18.31619638	     -7.89822396	      2.88677160	     -1.94175390	     -0.06035805	     -0.30157707	     50.13919634	      6.63976452	    -10.91457290	    -30.79358538	     -7.44730727	    -18.86736977	      2.43798613	      0.16358654	    -10.54893272	     -6.47893673	    -28.83309570	     -5.02921607	     13.88253758	     21.65040086	     20.66310123	      5.92587076	    -21.70930166
      3.99000000	    -18.19004338	     -8.11027003	      2.87047041	     -1.93413051	     -0.06030451	     -0.30076273	     49.96120275	      6.94150414	    -10.89645594	    -31.66148531	     -6.58865154	    -18.86308359	      1.68454281	      0.56814336	    -11.05853242	     -6.53744756	    -30.20971337	     -7.07355020	     13.87701675	     23.41427871	     20.57624035	      6.13737315	    -21.86101554
      3.99500000	    -18.08033391	     -8.33280380	      2.82117943	     -1.92665449	     -0.06018233	     -0.29998232	     49.73368232	      7.26115564	    -10.92118295	    -32.38949990	     -5.77829283	    -18.79874650	      1.21250851	      1.06584035	    -11.56267873	     -6.60110813	    -31.67141948	     -9.09392482	     13.59968244	     25.10219291	     20.48240741	      6.38484596	    -21.97397290
      4.00000000	    -18.00808853	     -8.56058254	      2.83043107	     -1.91927786	     -0.05999926	     -0.29926763	     49.47473255	      7.51880771	    -11.06540964	    -32.98528702	     -4.93103748	    -18.65117050	      1.09864798	      1.69530081	    -12.05381781	     -6.51892673	    -33.20531402	    -11.02387129	     13.26665324	     26.54659112	     20.42566288	      6.60868788	    -22.15270046
      4.00500000	    -17.94273264	     -8.83188899	      2.80160609	     -1.91196043	     -0.05978376	     -0.29857462	     49.15407324	      7.82277716	    -11.28577467	    -33.44284576	     -4.08335844	    -18.44485280	      1.26499729	      2.40195925	    -12.58320827	     -6.46600319	    -34.89829582	    -12.64819824	     12.99556138	     26.82744639	     20.37214157	      6.89878792	    -22.28203779
      4.01000000	    -17.96565456	     -9.01313192	      2.88189242	     -1.90488763	     -0.05946876	     -0.29794439	     48.88786685	      7.94279856	    -11.58471312	    -33.82922070	     -3.24551022	    -18.11435180	      1.60807685	      3.27395027	    -12.96035602	     -6.12448863	    -36.44352184	    -14.39679847	     12.23909418	     28.83294303	     20.38450787	      7.03952765	    -22.49267910
      4.01500000	    -17.90960418	     -9.28833312	      2.97245773	     -1.89788085	     -0.05904813	     -0.29741125	     48.47832644	      8.12655243	    -12.03166994	    -34.09060200	     -2.40097835	    -17.73917126	      1.93290115	      4.15514367	    -13.42632883	     -5.78818832	    -38.19863108	    -15.67466897	     11.62945102	     29.16488223	     20.32028193	      7.28942647	    -22.71880080
      4.02000000	    -17.94081710	     -9.52844507	      3.04187485	     -1.89097261	     -0.05861583	     -0.29687349	     48.11405705	      8.28641666	    -12.44009701	    -34.26434960	     -1.58552887	    -17.32189343	      2.38577121	      5.16294386	    -13.81486401	     -5.40651912	    -39.94565113	    -16.73021498	     10.77644455	     29.56736571	     20.33721332	      7.50486427	    -22.89601429
      4.02500000	    -17.99347787	     -9.77231018	      3.09488998	     -1.88414212	     -0.05811261	     -0.29634283	     47.72189238	      8.46509471	    -12.83175371	    -34.33563842	     -0.81683803	    -16.89783158	      2.91205861	      6.22818221	    -14.18282942	     -5.01976459	    -41.70297129	    -17.52079253	      9.75462660	     29.84023025	     20.37203199	      7.72895953	    -23.03885992
      4.03000000	    -18.03695219	    -10.01944105	      3.12791306	     -1.87742975	     -0.05751295	     -0.29581682	     47.29269908	      8.65855424	    -13.25800118	    -34.34263745	     -0.13344189	    -16.47805823	      3.38161436	      7.31746161	    -14.53850662	     -4.65954241	    -43.47601595	    -18.03424872	      8.56827943	     29.87088006	     20.38208519	      7.97002125	    -23.11177842
      4.03500000	    -18.13267394	    -10.25316403	      3.19148458	     -1.87072467	     -0.05687540	     -0.29535604	     46.86540313	      8.82822936	    -13.63989744	    -34.25833875	      0.58907322	    -16.03883918	      3.94428548	      8.49016944	    -14.82830596	     -4.19989132	    -45.22554526	    -18.26918223	      7.22292842	     29.69179185	     20.46563670	      8.18146941	    -23.21765395
      4.04000000	    -18.30264984	    -10.46972675	      3.19460064	     -1.86407313	     -0.05623160	     -0.29486178	     46.48550333	      9.01498840	    -13.97410358	    -34.10311900	      1.22813716	    -15.58484883	      4.82226917	      9.75811150	    -15.09809388	     -3.83155666	    -46.99513353	    -18.25441922	      5.86136240	     28.99191874	     20.62042993	      8.38876456	    -23.24587330
      4.04500000	    -18.38816638	    -10.67937996	      3.22064275	     -1.85747696	     -0.05538431	     -0.29441769	     45.98540637	      9.21254689	    -14.29611821	    -33.89167425	      1.81406983	    -15.19417507	      5.38166163	     10.94795169	    -15.33924859	     -3.46766382	    -48.71068148	    -18.07570851	      4.30591714	     28.04861757	     20.68580985	      8.59335392	    -23.25720486
